<svg xmlns="http://www.w3.org/2000/svg" xmlns:xlink="http://www.w3.org/1999/xlink" width="300" zoomAndPan="magnify" viewBox="0 0 224.87999 225" height="300" preserveAspectRatio="xMidYMid meet" version="1.0"><defs><clipPath id="ee351b7ac5"><path d="M 0 50.9375 L 224.761719 50.9375 L 224.761719 120 L 0 120 Z M 0 50.9375 " clip-rule="nonzero"/></clipPath><clipPath id="6d28c3e72b"><path d="M 23 131 L 40 131 L 40 173.875 L 23 173.875 Z M 23 131 " clip-rule="nonzero"/></clipPath><clipPath id="4fa54334ed"><path d="M 45 131 L 62 131 L 62 173.875 L 45 173.875 Z M 45 131 " clip-rule="nonzero"/></clipPath><clipPath id="ab1629485b"><path d="M 67 131 L 84 131 L 84 173.875 L 67 173.875 Z M 67 131 " clip-rule="nonzero"/></clipPath><clipPath id="78bfd82779"><path d="M 141 131 L 158 131 L 158 173.875 L 141 173.875 Z M 141 131 " clip-rule="nonzero"/></clipPath><clipPath id="a1375cd5ff"><path d="M 120 131 L 136 131 L 136 173.875 L 120 173.875 Z M 120 131 " clip-rule="nonzero"/></clipPath><clipPath id="eaabe2b293"><path d="M 89 131 L 105 131 L 105 173.875 L 89 173.875 Z M 89 131 " clip-rule="nonzero"/></clipPath><clipPath id="4b7219a1d8"><path d="M 163 131 L 180 131 L 180 173.875 L 163 173.875 Z M 163 131 " clip-rule="nonzero"/></clipPath><clipPath id="1f4c56f8d5"><path d="M 185 131 L 202 131 L 202 173.875 L 185 173.875 Z M 185 131 " clip-rule="nonzero"/></clipPath></defs><path fill="#7d7d7d" d="M 23.355469 108.90625 L 201.480469 108.90625 L 201.480469 120.132812 L 23.355469 120.132812 Z M 23.355469 108.90625 " fill-opacity="1" fill-rule="nonzero"/><g clip-path="url(#ee351b7ac5)"><path fill="#7d7d7d" d="M 213.109375 50.9375 L 11.769531 50.9375 C 5.394531 50.9375 0.183594 56.148438 0.183594 62.523438 L 0.183594 99.792969 C 0.183594 109.984375 7.773438 118.472656 17.5625 119.863281 L 17.5625 105.988281 C 17.5625 104.371094 18.863281 103.070312 20.480469 103.070312 L 204.398438 103.070312 C 206.015625 103.070312 207.316406 104.371094 207.316406 105.988281 L 207.316406 119.863281 C 217.152344 118.472656 224.695312 109.984375 224.695312 99.792969 L 224.695312 62.523438 C 224.695312 56.148438 219.488281 50.9375 213.109375 50.9375 Z M 210.191406 68.316406 L 196.40625 68.316406 C 194.789062 68.316406 193.488281 67.015625 193.488281 65.398438 C 193.488281 63.78125 194.789062 62.480469 196.40625 62.480469 L 210.191406 62.480469 C 211.808594 62.480469 213.109375 63.78125 213.109375 65.398438 C 213.109375 67.015625 211.808594 68.316406 210.191406 68.316406 Z M 210.191406 68.316406 " fill-opacity="1" fill-rule="nonzero"/></g><g clip-path="url(#6d28c3e72b)"><path fill="#7d7d7d" d="M 35.207031 131.71875 C 33.636719 131.941406 32.515625 133.425781 32.738281 134.996094 C 34.488281 147.210938 31.480469 159.421875 24.296875 169.4375 C 23.355469 170.738281 23.667969 172.535156 24.96875 173.476562 C 25.464844 173.835938 26.09375 174.015625 26.675781 174.015625 C 27.574219 174.015625 28.472656 173.613281 29.011719 172.804688 C 37.09375 161.578125 40.460938 147.839844 38.484375 134.144531 C 38.261719 132.617188 36.78125 131.492188 35.207031 131.71875 Z M 35.207031 131.71875 " fill-opacity="1" fill-rule="nonzero"/></g><g clip-path="url(#4fa54334ed)"><path fill="#7d7d7d" d="M 57.210938 131.71875 C 55.640625 131.941406 54.515625 133.425781 54.742188 134.996094 C 56.492188 147.210938 53.484375 159.421875 46.300781 169.4375 C 45.355469 170.738281 45.671875 172.535156 46.972656 173.476562 C 47.464844 173.835938 48.09375 174.015625 48.679688 174.015625 C 49.578125 174.015625 50.476562 173.613281 51.015625 172.804688 C 59.097656 161.578125 62.464844 147.839844 60.488281 134.144531 C 60.261719 132.617188 58.828125 131.492188 57.210938 131.71875 Z M 57.210938 131.71875 " fill-opacity="1" fill-rule="nonzero"/></g><g clip-path="url(#ab1629485b)"><path fill="#7d7d7d" d="M 79.257812 131.71875 C 77.6875 131.941406 76.5625 133.425781 76.789062 134.996094 C 78.539062 147.210938 75.53125 159.421875 68.347656 169.4375 C 67.402344 170.738281 67.71875 172.535156 69.019531 173.476562 C 69.511719 173.835938 70.140625 174.015625 70.726562 174.015625 C 71.625 174.015625 72.523438 173.613281 73.0625 172.804688 C 81.144531 161.578125 84.511719 147.839844 82.535156 134.144531 C 82.3125 132.617188 80.828125 131.492188 79.257812 131.71875 Z M 79.257812 131.71875 " fill-opacity="1" fill-rule="nonzero"/></g><g clip-path="url(#78bfd82779)"><path fill="#7d7d7d" d="M 148.09375 134.996094 C 148.316406 133.425781 147.238281 131.941406 145.621094 131.71875 C 144.050781 131.492188 142.570312 132.570312 142.34375 134.1875 C 140.371094 147.882812 143.738281 161.621094 151.820312 172.847656 C 152.402344 173.613281 153.257812 174.0625 154.152344 174.0625 C 154.738281 174.0625 155.320312 173.882812 155.859375 173.523438 C 157.164062 172.578125 157.433594 170.78125 156.535156 169.480469 C 149.347656 159.46875 146.339844 147.210938 148.09375 134.996094 Z M 148.09375 134.996094 " fill-opacity="1" fill-rule="nonzero"/></g><g clip-path="url(#a1375cd5ff)"><path fill="#7d7d7d" d="M 126.089844 134.59375 C 126.089844 132.976562 124.789062 131.671875 123.171875 131.671875 C 121.554688 131.671875 120.253906 132.976562 120.253906 134.59375 C 120.253906 146.984375 121.375 161.21875 129.773438 172.847656 C 130.355469 173.613281 131.210938 174.0625 132.105469 174.0625 C 132.691406 174.0625 133.273438 173.882812 133.8125 173.523438 C 135.117188 172.578125 135.386719 170.78125 134.488281 169.480469 C 127.078125 159.152344 126.089844 146.042969 126.089844 134.59375 Z M 126.089844 134.59375 " fill-opacity="1" fill-rule="nonzero"/></g><g clip-path="url(#eaabe2b293)"><path fill="#7d7d7d" d="M 101.664062 131.71875 C 100.046875 131.71875 98.746094 133.019531 98.746094 134.636719 C 98.746094 146.085938 97.757812 159.199219 90.304688 169.480469 C 89.359375 170.78125 89.675781 172.578125 90.976562 173.523438 C 91.46875 173.882812 92.097656 174.0625 92.683594 174.0625 C 93.582031 174.0625 94.480469 173.65625 95.019531 172.847656 C 103.414062 161.21875 104.539062 146.984375 104.539062 134.59375 C 104.582031 133.019531 103.28125 131.71875 101.664062 131.71875 Z M 101.664062 131.71875 " fill-opacity="1" fill-rule="nonzero"/></g><g clip-path="url(#4b7219a1d8)"><path fill="#7d7d7d" d="M 170.09375 134.996094 C 170.320312 133.425781 169.242188 131.941406 167.625 131.71875 C 166.054688 131.492188 164.570312 132.570312 164.347656 134.1875 C 162.371094 147.882812 165.738281 161.621094 173.820312 172.847656 C 174.40625 173.613281 175.257812 174.0625 176.15625 174.0625 C 176.738281 174.0625 177.324219 173.882812 177.863281 173.523438 C 179.164062 172.578125 179.433594 170.78125 178.535156 169.480469 C 171.351562 159.46875 168.34375 147.210938 170.09375 134.996094 Z M 170.09375 134.996094 " fill-opacity="1" fill-rule="nonzero"/></g><g clip-path="url(#1f4c56f8d5)"><path fill="#7d7d7d" d="M 192.140625 134.996094 C 192.367188 133.425781 191.289062 131.941406 189.671875 131.71875 C 188.101562 131.492188 186.617188 132.570312 186.394531 134.1875 C 184.417969 147.882812 187.785156 161.621094 195.867188 172.847656 C 196.453125 173.613281 197.304688 174.0625 198.203125 174.0625 C 198.785156 174.0625 199.371094 173.882812 199.910156 173.523438 C 201.210938 172.578125 201.480469 170.78125 200.582031 169.480469 C 193.398438 159.46875 190.390625 147.210938 192.140625 134.996094 Z M 192.140625 134.996094 " fill-opacity="1" fill-rule="nonzero"/></g></svg>