<svg xmlns="http://www.w3.org/2000/svg" xmlns:xlink="http://www.w3.org/1999/xlink" width="300" zoomAndPan="magnify" viewBox="0 0 224.87999 225" height="300" preserveAspectRatio="xMidYMid meet" version="1.0"><defs><clipPath id="08c881ec94"><path d="M 0 30 L 224.761719 30 L 224.761719 199.984375 L 0 199.984375 Z M 0 30 " clip-rule="nonzero"/></clipPath></defs><path fill="#7d7d7d" d="M 47.945312 96.640625 C 59.546875 96.640625 68.949219 85.648438 68.949219 72.09375 C 68.949219 58.535156 59.546875 47.542969 47.945312 47.542969 C 36.347656 47.542969 26.941406 58.535156 26.941406 72.09375 C 26.941406 85.648438 36.347656 96.640625 47.945312 96.640625 Z M 47.945312 96.640625 " fill-opacity="1" fill-rule="nonzero"/><path fill="#7d7d7d" d="M 93.296875 65.128906 L 177.253906 65.128906 C 189.570312 65.128906 196.824219 74.394531 196.824219 86.800781 L 196.824219 122.316406 L 93.296875 122.316406 Z M 93.296875 65.128906 " fill-opacity="1" fill-rule="nonzero"/><path fill="#7d7d7d" d="M 70.445312 77.839844 L 70.445312 99.140625 L 38.164062 99.140625 C 22.582031 99.207031 22.558594 122.617188 38.164062 122.617188 L 80.484375 122.617188 C 86.664062 122.617188 90.53125 116.789062 90.53125 110.195312 L 90.53125 77.839844 C 90.53125 60.113281 70.445312 60.113281 70.445312 77.839844 Z M 70.445312 77.839844 " fill-opacity="1" fill-rule="nonzero"/><g clip-path="url(#08c881ec94)"><path fill="#7d7d7d" d="M 22.929688 44.664062 C 22.929688 25.332031 -0.015625 25.332031 -0.015625 44.664062 L -0.015625 199.667969 L 23.441406 199.667969 L 23.441406 159.640625 L 201.90625 159.640625 L 201.90625 199.371094 L 224.851562 199.371094 L 224.851562 79.648438 C 224.851562 59.246094 201.652344 59.246094 201.652344 79.648438 L 201.652344 127.433594 L 22.929688 127.433594 Z M 22.929688 44.664062 " fill-opacity="1" fill-rule="nonzero"/></g></svg>