<svg xmlns="http://www.w3.org/2000/svg" xmlns:xlink="http://www.w3.org/1999/xlink" width="300" zoomAndPan="magnify" viewBox="0 0 224.87999 225" height="300" preserveAspectRatio="xMidYMid meet" version="1.0"><defs><clipPath id="59cb4c523b"><path d="M 47.367188 0.0585938 L 177.796875 0.0585938 L 177.796875 224.9375 L 47.367188 224.9375 Z M 47.367188 0.0585938 " clip-rule="nonzero"/></clipPath></defs><g clip-path="url(#59cb4c523b)"><path fill="#7d7d7d" d="M 59.464844 123.027344 L 59.464844 107.605469 C 59.464844 102.597656 63.535156 98.523438 68.542969 98.523438 C 73.550781 98.523438 77.625 102.597656 77.625 107.605469 L 77.625 123.027344 C 77.625 128.035156 73.550781 132.109375 68.542969 132.109375 C 63.535156 132.109375 59.464844 128.035156 59.464844 123.027344 Z M 79.246094 149.867188 L 83.304688 152.898438 L 76.074219 152.898438 C 74.125 152.898438 72.546875 154.480469 72.546875 156.425781 C 72.546875 158.375 74.125 159.953125 76.074219 159.953125 L 83.304688 159.953125 L 79.246094 162.988281 C 77.6875 164.15625 77.367188 166.367188 78.535156 167.925781 C 79.699219 169.484375 81.910156 169.804688 83.472656 168.640625 L 95.085938 159.953125 L 106.332031 159.953125 L 100.710938 169.691406 L 87.378906 175.410156 C 85.589844 176.175781 84.761719 178.25 85.527344 180.042969 C 86.296875 181.832031 88.371094 182.660156 90.160156 181.890625 L 94.816406 179.894531 L 91.203125 186.15625 C 90.226562 187.84375 90.804688 190.003906 92.492188 190.976562 C 94.179688 191.949219 96.335938 191.371094 97.3125 189.683594 L 100.929688 183.421875 L 101.527344 188.453125 C 101.757812 190.386719 103.507812 191.769531 105.445312 191.539062 C 107.378906 191.308594 108.761719 189.554688 108.53125 187.621094 L 106.820312 173.21875 L 112.441406 163.480469 L 118.0625 173.21875 L 116.347656 187.621094 C 116.117188 189.554688 117.5 191.308594 119.433594 191.539062 C 119.578125 191.554688 119.714844 191.566406 119.855469 191.566406 C 121.617188 191.566406 123.140625 190.246094 123.355469 188.453125 L 123.953125 183.421875 L 127.566406 189.683594 C 128.542969 191.371094 130.699219 191.949219 132.386719 190.976562 C 134.074219 190 134.652344 187.84375 133.679688 186.15625 L 130.0625 179.894531 L 134.71875 181.890625 C 136.507812 182.660156 138.582031 181.832031 139.351562 180.039062 C 140.121094 178.25 139.289062 176.175781 137.5 175.40625 L 124.171875 169.691406 L 118.550781 159.953125 L 129.792969 159.953125 L 141.410156 168.640625 C 142.96875 169.804688 145.179688 169.488281 146.347656 167.925781 C 147.511719 166.367188 147.195312 164.15625 145.632812 162.988281 L 141.574219 159.953125 L 148.804688 159.953125 C 150.753906 159.953125 152.332031 158.375 152.332031 156.425781 C 152.332031 154.476562 150.753906 152.898438 148.804688 152.898438 L 141.574219 152.898438 L 145.632812 149.863281 C 147.195312 148.699219 147.511719 146.488281 146.347656 144.925781 C 145.179688 143.367188 142.96875 143.046875 141.410156 144.214844 L 129.792969 152.898438 L 118.550781 152.898438 L 124.171875 143.160156 L 137.5 137.445312 C 139.292969 136.675781 140.121094 134.601562 139.351562 132.8125 C 138.585938 131.023438 136.511719 130.191406 134.71875 130.960938 L 130.0625 132.957031 L 133.679688 126.695312 C 134.652344 125.007812 134.074219 122.851562 132.386719 121.878906 C 130.699219 120.902344 128.542969 121.480469 127.570312 123.167969 L 123.953125 129.429688 L 123.355469 124.398438 C 123.125 122.464844 121.371094 121.085938 119.433594 121.3125 C 117.5 121.542969 116.117188 123.296875 116.347656 125.234375 L 118.0625 139.632812 L 112.441406 149.371094 L 106.820312 139.636719 L 108.53125 125.234375 C 108.761719 123.300781 107.378906 121.542969 105.445312 121.3125 C 103.511719 121.085938 101.757812 122.464844 101.527344 124.398438 L 100.929688 129.433594 L 97.3125 123.167969 C 96.335938 121.480469 94.179688 120.90625 92.492188 121.878906 C 90.804688 122.851562 90.226562 125.007812 91.203125 126.695312 L 94.816406 132.960938 L 90.160156 130.960938 C 88.371094 130.195312 86.296875 131.023438 85.527344 132.8125 C 84.761719 134.601562 85.589844 136.675781 87.378906 137.445312 L 100.707031 143.164062 L 106.332031 152.898438 L 95.085938 152.898438 L 83.472656 144.214844 C 81.910156 143.046875 79.703125 143.367188 78.535156 144.929688 C 77.367188 146.488281 77.6875 148.699219 79.246094 149.867188 Z M 177.386719 10.472656 L 177.386719 204.042969 C 177.386719 209.78125 172.714844 214.453125 166.972656 214.453125 L 165.523438 214.453125 L 165.523438 219.648438 C 165.523438 222.566406 163.148438 224.941406 160.230469 224.941406 L 147.082031 224.941406 C 144.164062 224.941406 141.792969 222.566406 141.792969 219.648438 L 141.792969 214.453125 L 83.089844 214.453125 L 83.089844 219.648438 C 83.089844 222.566406 80.714844 224.941406 77.796875 224.941406 L 64.648438 224.941406 C 61.734375 224.941406 59.359375 222.566406 59.359375 219.648438 L 59.359375 214.453125 L 57.90625 214.453125 C 52.164062 214.453125 47.496094 209.78125 47.496094 204.042969 L 47.496094 10.472656 C 47.496094 4.730469 52.164062 0.0585938 57.90625 0.0585938 L 166.972656 0.0585938 C 172.714844 0.0585938 177.386719 4.730469 177.386719 10.472656 Z M 62.109375 48.914062 C 62.109375 52.460938 64.996094 55.347656 68.542969 55.347656 C 72.09375 55.347656 74.980469 52.460938 74.980469 48.914062 L 74.980469 33.488281 C 74.980469 29.941406 72.09375 27.050781 68.542969 27.050781 C 64.996094 27.050781 62.109375 29.941406 62.109375 33.488281 Z M 170.332031 82.339844 L 54.550781 82.339844 L 54.550781 204.039062 C 54.550781 205.890625 56.054688 207.398438 57.90625 207.398438 L 166.972656 207.398438 C 168.824219 207.398438 170.328125 205.890625 170.328125 204.039062 L 170.328125 82.339844 Z M 170.332031 82.339844 " fill-opacity="1" fill-rule="nonzero"/></g></svg>