<svg xmlns="http://www.w3.org/2000/svg" xmlns:xlink="http://www.w3.org/1999/xlink" width="300" zoomAndPan="magnify" viewBox="0 0 224.87999 225" height="300" preserveAspectRatio="xMidYMid meet" version="1.0"><defs><filter x="0%" y="0%" width="100%" height="100%" id="2e032faa5d"><feColorMatrix values="0 0 0 0 1 0 0 0 0 1 0 0 0 0 1 0 0 0 1 0" color-interpolation-filters="sRGB"/></filter><clipPath id="184ff7d193"><path d="M 1 22.546875 L 82 22.546875 L 82 203.953125 L 1 203.953125 Z M 1 22.546875 " clip-rule="nonzero"/></clipPath><clipPath id="2aae072d44"><path d="M 72 22.546875 L 154 22.546875 L 154 203.953125 L 72 203.953125 Z M 72 22.546875 " clip-rule="nonzero"/></clipPath><mask id="0a78004829"><g filter="url(#2e032faa5d)"><rect x="-22.487999" width="269.855988" fill="#000000" y="-22.5" height="270" fill-opacity="0.6"/></g></mask><clipPath id="73dd5fbca5"><path d="M 0.203125 0.546875 L 81 0.546875 L 81 181.953125 L 0.203125 181.953125 Z M 0.203125 0.546875 " clip-rule="nonzero"/></clipPath><clipPath id="03643422a7"><rect x="0" width="82" y="0" height="182"/></clipPath><clipPath id="1e8d5bca7d"><path d="M 143 22.546875 L 224.761719 22.546875 L 224.761719 203.953125 L 143 203.953125 Z M 143 22.546875 " clip-rule="nonzero"/></clipPath><mask id="460f80bd18"><g filter="url(#2e032faa5d)"><rect x="-22.487999" width="269.855988" fill="#000000" y="-22.5" height="270" fill-opacity="0.4"/></g></mask><clipPath id="91a62aff2a"><path d="M 1 0.546875 L 81.519531 0.546875 L 81.519531 181.953125 L 1 181.953125 Z M 1 0.546875 " clip-rule="nonzero"/></clipPath><clipPath id="739e5be135"><rect x="0" width="82" y="0" height="182"/></clipPath></defs><g clip-path="url(#184ff7d193)"><path fill="#2348ff" d="M 74.117188 203.707031 L 74.871094 203.707031 C 75.488281 203.707031 76.089844 203.621094 76.683594 203.449219 C 77.273438 203.277344 77.828125 203.027344 78.351562 202.699219 C 78.871094 202.367188 79.332031 201.972656 79.742188 201.511719 C 80.148438 201.046875 80.484375 200.539062 80.746094 199.980469 C 81.007812 199.425781 81.1875 198.84375 81.285156 198.234375 C 81.382812 197.625 81.390625 197.015625 81.316406 196.40625 C 81.238281 195.792969 81.078125 195.207031 80.835938 194.640625 C 80.589844 194.074219 80.273438 193.554688 79.878906 193.082031 L 13.988281 113.226562 L 79.898438 33.347656 C 80.289062 32.875 80.609375 32.355469 80.851562 31.789062 C 81.09375 31.226562 81.257812 30.640625 81.332031 30.027344 C 81.410156 29.417969 81.402344 28.808594 81.304688 28.203125 C 81.207031 27.59375 81.03125 27.011719 80.769531 26.457031 C 80.507812 25.898438 80.171875 25.390625 79.765625 24.925781 C 79.359375 24.464844 78.898438 24.070312 78.378906 23.738281 C 77.863281 23.410156 77.308594 23.15625 76.714844 22.984375 C 76.125 22.8125 75.523438 22.722656 74.910156 22.722656 L 74.085938 22.722656 C 73.113281 22.71875 72.1875 22.925781 71.308594 23.339844 C 70.425781 23.753906 69.679688 24.335938 69.058594 25.085938 L 5.253906 102.46875 C 4.632812 103.21875 4.082031 104.019531 3.601562 104.863281 C 3.121094 105.710938 2.714844 106.589844 2.386719 107.507812 C 2.058594 108.421875 1.808594 109.359375 1.644531 110.320312 C 1.476562 111.277344 1.394531 112.242188 1.394531 113.214844 C 1.394531 114.191406 1.476562 115.15625 1.644531 116.113281 C 1.808594 117.074219 2.058594 118.011719 2.386719 118.925781 C 2.714844 119.84375 3.121094 120.722656 3.601562 121.570312 C 4.082031 122.414062 4.632812 123.214844 5.253906 123.964844 L 69.105469 201.347656 C 69.722656 202.097656 70.46875 202.675781 71.347656 203.089844 C 72.222656 203.503906 73.148438 203.707031 74.117188 203.707031 Z M 74.117188 203.707031 " fill-opacity="1" fill-rule="nonzero"/></g><g clip-path="url(#2aae072d44)"><g mask="url(#0a78004829)"><g transform="matrix(1, 0, 0, 1, 72, 22)"><g clip-path="url(#03643422a7)"><g clip-path="url(#73dd5fbca5)"><path fill="#2348ff" d="M 73.65625 181.707031 L 74.414062 181.707031 C 75.03125 181.707031 75.636719 181.621094 76.226562 181.449219 C 76.816406 181.277344 77.375 181.027344 77.894531 180.699219 C 78.414062 180.367188 78.878906 179.972656 79.285156 179.511719 C 79.691406 179.046875 80.027344 178.539062 80.289062 177.980469 C 80.550781 177.425781 80.730469 176.84375 80.828125 176.234375 C 80.925781 175.625 80.933594 175.015625 80.859375 174.40625 C 80.78125 173.792969 80.621094 173.207031 80.378906 172.640625 C 80.132812 172.074219 79.816406 171.554688 79.421875 171.082031 L 13.53125 91.226562 L 79.445312 11.347656 C 79.835938 10.875 80.15625 10.355469 80.398438 9.789062 C 80.644531 9.226562 80.804688 8.636719 80.882812 8.027344 C 80.957031 7.417969 80.949219 6.808594 80.851562 6.199219 C 80.753906 5.589844 80.578125 5.007812 80.316406 4.453125 C 80.054688 3.894531 79.71875 3.386719 79.3125 2.925781 C 78.90625 2.460938 78.441406 2.066406 77.921875 1.734375 C 77.40625 1.40625 76.847656 1.15625 76.257812 0.980469 C 75.667969 0.808594 75.066406 0.722656 74.449219 0.722656 L 73.625 0.722656 C 72.652344 0.71875 71.726562 0.925781 70.847656 1.339844 C 69.964844 1.75 69.21875 2.332031 68.597656 3.085938 L 4.792969 80.46875 C 4.171875 81.21875 3.621094 82.019531 3.140625 82.863281 C 2.660156 83.710938 2.253906 84.589844 1.925781 85.507812 C 1.597656 86.421875 1.347656 87.359375 1.179688 88.320312 C 1.015625 89.277344 0.929688 90.242188 0.929688 91.214844 C 0.929688 92.191406 1.015625 93.15625 1.179688 94.113281 C 1.347656 95.074219 1.597656 96.011719 1.925781 96.925781 C 2.253906 97.84375 2.660156 98.722656 3.140625 99.570312 C 3.621094 100.414062 4.171875 101.214844 4.792969 101.964844 L 68.644531 179.347656 C 69.261719 180.097656 70.007812 180.675781 70.886719 181.089844 C 71.765625 181.503906 72.6875 181.707031 73.65625 181.707031 Z M 73.65625 181.707031 " fill-opacity="1" fill-rule="nonzero"/></g></g></g></g></g><g clip-path="url(#1e8d5bca7d)"><g mask="url(#460f80bd18)"><g transform="matrix(1, 0, 0, 1, 143, 22)"><g clip-path="url(#739e5be135)"><g clip-path="url(#91a62aff2a)"><path fill="#2348ff" d="M 74.195312 181.707031 L 74.953125 181.707031 C 75.570312 181.707031 76.175781 181.621094 76.765625 181.449219 C 77.355469 181.277344 77.914062 181.027344 78.433594 180.699219 C 78.953125 180.367188 79.417969 179.972656 79.824219 179.511719 C 80.230469 179.046875 80.566406 178.539062 80.828125 177.980469 C 81.089844 177.425781 81.269531 176.84375 81.367188 176.234375 C 81.464844 175.625 81.476562 175.015625 81.398438 174.40625 C 81.320312 173.792969 81.160156 173.207031 80.917969 172.640625 C 80.675781 172.074219 80.355469 171.554688 79.964844 171.082031 L 14.074219 91.226562 L 79.984375 11.347656 C 80.378906 10.875 80.695312 10.355469 80.9375 9.789062 C 81.183594 9.226562 81.34375 8.636719 81.421875 8.027344 C 81.496094 7.417969 81.488281 6.808594 81.390625 6.199219 C 81.296875 5.589844 81.117188 5.007812 80.855469 4.453125 C 80.59375 3.894531 80.257812 3.386719 79.851562 2.925781 C 79.445312 2.460938 78.980469 2.066406 78.464844 1.734375 C 77.945312 1.40625 77.390625 1.15625 76.796875 0.980469 C 76.207031 0.808594 75.605469 0.722656 74.988281 0.722656 L 74.167969 0.722656 C 73.195312 0.71875 72.269531 0.925781 71.386719 1.339844 C 70.507812 1.753906 69.757812 2.335938 69.140625 3.085938 L 5.332031 80.46875 C 4.714844 81.21875 4.164062 82.019531 3.683594 82.863281 C 3.203125 83.710938 2.796875 84.589844 2.46875 85.507812 C 2.136719 86.421875 1.890625 87.359375 1.722656 88.320312 C 1.558594 89.277344 1.472656 90.242188 1.472656 91.214844 C 1.472656 92.191406 1.558594 93.15625 1.722656 94.113281 C 1.890625 95.074219 2.136719 96.011719 2.46875 96.925781 C 2.796875 97.84375 3.203125 98.722656 3.683594 99.570312 C 4.164062 100.414062 4.714844 101.214844 5.332031 101.964844 L 69.183594 179.347656 C 69.800781 180.097656 70.550781 180.675781 71.425781 181.089844 C 72.304688 181.503906 73.226562 181.707031 74.195312 181.707031 Z M 74.195312 181.707031 " fill-opacity="1" fill-rule="nonzero"/></g></g></g></g></g></svg>