<svg xmlns="http://www.w3.org/2000/svg" xmlns:xlink="http://www.w3.org/1999/xlink" width="300" zoomAndPan="magnify" viewBox="0 0 224.87999 225" height="300" preserveAspectRatio="xMidYMid meet" version="1.0"><defs><clipPath id="cd55fe254d"><path d="M 22.910156 0.0585938 L 202 0.0585938 L 202 224.9375 L 22.910156 224.9375 Z M 22.910156 0.0585938 " clip-rule="nonzero"/></clipPath></defs><g clip-path="url(#cd55fe254d)"><path fill="#7d7d7d" d="M 122.867188 100.582031 C 135.460938 104.207031 145.300781 114.355469 148.535156 127.0625 C 149.011719 128.972656 150.726562 130.238281 152.609375 130.238281 C 152.945312 130.238281 153.3125 130.210938 153.648438 130.097656 C 155.898438 129.535156 157.277344 127.230469 156.683594 124.980469 C 152.722656 109.378906 140.664062 96.925781 125.203125 92.457031 C 122.953125 91.8125 120.621094 93.105469 119.972656 95.351562 C 119.328125 97.601562 120.621094 99.933594 122.867188 100.582031 Z M 112.636719 182.128906 C 134.589844 182.128906 152.554688 165.121094 154.128906 143.589844 C 140.128906 143.476562 142.433594 148.058594 124.359375 152.472656 C 102.65625 157.757812 106.535156 145.472656 84.582031 145.949219 C 79.609375 146.0625 75.335938 146.710938 71.652344 147.636719 C 75.027344 167.230469 92.089844 182.128906 112.636719 182.128906 Z M 22.964844 210.96875 C 22.964844 218.671875 29.207031 224.941406 36.9375 224.941406 L 187.972656 224.941406 C 195.671875 224.941406 201.941406 218.699219 201.941406 210.96875 L 201.941406 48.746094 L 22.964844 48.746094 Z M 94.984375 64.152344 C 97.0625 68.367188 101.394531 71.207031 106.285156 71.207031 L 118.847656 71.207031 C 123.769531 71.207031 128.097656 68.367188 130.148438 64.152344 C 162.644531 72.050781 186.761719 101.3125 186.761719 136.226562 C 186.761719 177.210938 153.535156 210.433594 112.550781 210.433594 C 71.566406 210.433594 38.34375 177.210938 38.34375 136.226562 C 38.371094 101.3125 62.488281 72.050781 94.984375 64.152344 Z M 196.855469 3.238281 C 196.152344 2.675781 195.421875 2.167969 194.632812 1.746094 C 194.238281 1.523438 193.820312 1.324219 193.425781 1.15625 C 191.738281 0.453125 189.882812 0.0585938 187.972656 0.0585938 L 36.910156 0.0585938 C 34.011719 0.0585938 31.316406 0.929688 29.09375 2.449219 C 25.382812 4.949219 22.9375 9.222656 22.9375 14.03125 L 22.9375 46.246094 L 201.914062 46.246094 L 201.914062 14.03125 C 201.914062 9.703125 199.945312 5.824219 196.855469 3.238281 Z M 95.628906 31.824219 L 39.691406 31.824219 L 34.828125 17.121094 L 100.492188 17.121094 Z M 142.265625 30.585938 C 142.265625 32.332031 140.859375 33.765625 139.089844 33.765625 L 111.933594 33.765625 C 110.191406 33.765625 108.757812 32.359375 108.757812 30.585938 L 108.757812 20.269531 C 108.757812 18.527344 110.164062 17.09375 111.933594 17.09375 L 139.089844 17.09375 C 140.832031 17.09375 142.265625 18.5 142.265625 20.269531 Z M 154.886719 33.0625 C 153.367188 33.0625 152.132812 31.824219 152.132812 30.304688 C 152.132812 28.789062 153.367188 27.550781 154.886719 27.550781 C 156.402344 27.550781 157.640625 28.789062 157.640625 30.304688 C 157.667969 31.824219 156.433594 33.0625 154.886719 33.0625 Z M 154.886719 24.710938 C 153.367188 24.710938 152.132812 23.476562 152.132812 21.957031 C 152.132812 20.441406 153.367188 19.203125 154.886719 19.203125 C 156.402344 19.203125 157.640625 20.441406 157.640625 21.957031 C 157.667969 23.476562 156.433594 24.710938 154.886719 24.710938 Z M 163.742188 33.0625 C 162.222656 33.0625 160.984375 31.824219 160.984375 30.304688 C 160.984375 28.789062 162.222656 27.550781 163.742188 27.550781 C 165.257812 27.550781 166.496094 28.789062 166.496094 30.304688 C 166.496094 31.824219 165.257812 33.0625 163.742188 33.0625 Z M 163.742188 24.710938 C 162.222656 24.710938 160.984375 23.476562 160.984375 21.957031 C 160.984375 20.441406 162.222656 19.203125 163.742188 19.203125 C 165.257812 19.203125 166.496094 20.441406 166.496094 21.957031 C 166.496094 23.476562 165.257812 24.710938 163.742188 24.710938 Z M 172.566406 33.0625 C 171.050781 33.0625 169.8125 31.824219 169.8125 30.304688 C 169.8125 28.789062 171.050781 27.550781 172.566406 27.550781 C 174.085938 27.550781 175.320312 28.789062 175.320312 30.304688 C 175.320312 31.824219 174.085938 33.0625 172.566406 33.0625 Z M 172.566406 24.710938 C 171.050781 24.710938 169.8125 23.476562 169.8125 21.957031 C 169.8125 20.441406 171.050781 19.203125 172.566406 19.203125 C 174.085938 19.203125 175.320312 20.441406 175.320312 21.957031 C 175.320312 23.476562 174.085938 24.710938 172.566406 24.710938 Z M 181.394531 33.0625 C 179.875 33.0625 178.640625 31.824219 178.640625 30.304688 C 178.640625 28.789062 179.875 27.550781 181.394531 27.550781 C 182.910156 27.550781 184.148438 28.789062 184.148438 30.304688 C 184.148438 31.824219 182.910156 33.0625 181.394531 33.0625 Z M 181.394531 24.710938 C 179.875 24.710938 178.640625 23.476562 178.640625 21.957031 C 178.640625 20.441406 179.875 19.203125 181.394531 19.203125 C 182.910156 19.203125 184.148438 20.441406 184.148438 21.957031 C 184.148438 23.476562 182.910156 24.710938 181.394531 24.710938 Z M 112.582031 198.996094 C 147.238281 198.996094 175.351562 170.882812 175.351562 136.226562 C 175.351562 101.566406 147.238281 73.457031 112.582031 73.457031 C 77.921875 73.457031 49.8125 101.566406 49.8125 136.226562 C 49.8125 170.882812 77.921875 198.996094 112.582031 198.996094 Z M 112.582031 84.023438 C 141.394531 84.023438 164.753906 107.382812 164.753906 136.195312 C 164.753906 165.039062 141.394531 188.398438 112.582031 188.398438 C 83.769531 188.398438 60.410156 165.039062 60.410156 136.226562 C 60.378906 107.382812 83.738281 84.023438 112.582031 84.023438 Z M 112.582031 84.023438 " fill-opacity="1" fill-rule="nonzero"/></g></svg>