<svg xmlns="http://www.w3.org/2000/svg" xmlns:xlink="http://www.w3.org/1999/xlink" width="300" zoomAndPan="magnify" viewBox="0 0 224.87999 225" height="300" preserveAspectRatio="xMidYMid meet" version="1.0"><defs><clipPath id="b14f664a1b"><path d="M 27 0.0585938 L 197 0.0585938 L 197 224.9375 L 27 224.9375 Z M 27 0.0585938 " clip-rule="nonzero"/></clipPath></defs><g clip-path="url(#b14f664a1b)"><path fill="#7d7d7d" d="M 67.125 84.082031 C 67.125 79.953125 63.78125 76.609375 59.652344 76.609375 L 34.839844 76.609375 C 30.300781 76.609375 26.808594 80.628906 27.441406 85.121094 L 36.019531 146.167969 L 67.125 146.167969 Z M 147.535156 158.644531 L 147.535156 150.609375 L 36.605469 150.609375 C 37.003906 153.4375 39.4375 158.691406 42.371094 158.691406 L 55.917969 158.691406 C 55.917969 158.691406 67.085938 182.925781 65.511719 223.289062 L 122.070312 223.289062 C 122.050781 220.574219 120.027344 218.425781 118.957031 216.992188 C 113.570312 209.777344 121.085938 201.519531 127.371094 193.570312 C 134.679688 184.320312 142.988281 172.199219 143.3125 158.664062 Z M 122.203125 0.0585938 C 134.125 0.0585938 143.792969 9.726562 143.792969 21.652344 C 143.792969 33.574219 134.125 43.242188 122.203125 43.242188 C 110.277344 43.242188 100.609375 33.574219 100.609375 21.652344 C 100.609375 9.726562 110.277344 0.0585938 122.203125 0.0585938 Z M 89.355469 128.972656 C 89.691406 136.953125 95.277344 143.457031 102.636719 145.347656 C 104.046875 145.960938 105.601562 146.304688 107.234375 146.304688 L 160.527344 146.304688 L 143.789062 210.476562 C 142.179688 216.648438 145.878906 222.953125 152.050781 224.558594 C 153.023438 224.816406 154.003906 224.9375 154.96875 224.9375 C 160.097656 224.9375 164.777344 221.496094 166.132812 216.300781 L 185.269531 142.929688 C 186.511719 138.179688 185.5 133.222656 182.496094 129.332031 C 182.136719 128.867188 181.746094 128.425781 181.347656 128.007812 C 182.71875 128.605469 184.167969 128.894531 185.597656 128.894531 C 189.277344 128.894531 192.863281 127.007812 194.878906 123.617188 C 197.914062 118.496094 196.222656 111.886719 191.105469 108.851562 L 157.855469 89.140625 C 157.855469 89.140625 139.648438 65.421875 133.34375 57.605469 C 128.992188 52.207031 126.96875 49.675781 121.996094 47.886719 C 112.792969 44.578125 102.65625 49.355469 99.347656 58.554688 C 87.867188 90.5 89.289062 127.417969 89.355469 128.972656 Z M 126.457031 122.058594 C 125.527344 122.035156 124.792969 121.273438 124.804688 120.339844 C 124.882812 113.089844 125.394531 100.742188 128.199219 86.890625 L 143.582031 105.730469 L 173.898438 123.703125 C 172.652344 123.390625 171.359375 123.214844 170.039062 123.214844 Z M 126.457031 122.058594 " fill-opacity="1" fill-rule="nonzero"/></g></svg>