<svg xmlns="http://www.w3.org/2000/svg" xmlns:xlink="http://www.w3.org/1999/xlink" width="300" zoomAndPan="magnify" viewBox="0 0 224.87999 225" height="300" preserveAspectRatio="xMidYMid meet" version="1.0"><defs><clipPath id="fc2295d1b6"><path d="M 1 26.90625 L 224 26.90625 L 224 93 L 1 93 Z M 1 26.90625 " clip-rule="nonzero"/></clipPath><clipPath id="0c4a9b60d1"><path d="M 95 161 L 132 161 L 132 197.8125 L 95 197.8125 Z M 95 161 " clip-rule="nonzero"/></clipPath></defs><g clip-path="url(#fc2295d1b6)"><path fill="#7d7d7d" d="M 10.632812 92.953125 C 8.425781 92.953125 6.203125 92.1875 4.40625 90.628906 C 0.4375 87.183594 0.0117188 81.175781 3.457031 77.210938 C 10.132812 69.519531 17.632812 62.507812 25.75 56.371094 C 33.933594 50.183594 42.78125 44.851562 52.054688 40.53125 C 71.398438 31.511719 92.105469 26.9375 113.601562 26.9375 C 134.464844 26.9375 154.613281 31.253906 173.488281 39.769531 C 182.542969 43.851562 191.21875 48.894531 199.277344 54.753906 C 207.261719 60.5625 214.6875 67.210938 221.347656 74.511719 C 224.886719 78.394531 224.613281 84.40625 220.730469 87.949219 C 216.851562 91.488281 210.835938 91.210938 207.296875 87.328125 C 195.527344 74.425781 181.519531 64.257812 165.667969 57.105469 C 149.269531 49.710938 131.75 45.957031 113.601562 45.957031 C 94.902344 45.957031 76.898438 49.933594 60.09375 57.769531 C 52.03125 61.527344 44.339844 66.160156 37.222656 71.542969 C 30.15625 76.882812 23.628906 82.984375 17.820312 89.679688 C 15.941406 91.84375 13.292969 92.953125 10.632812 92.953125 " fill-opacity="1" fill-rule="nonzero"/></g><path fill="#7d7d7d" d="M 185.820312 125.027344 C 182.769531 125.027344 179.773438 123.5625 177.933594 120.84375 C 171.199219 110.878906 161.757812 102.535156 150.628906 96.714844 C 139.078125 90.671875 125.882812 87.480469 112.480469 87.480469 C 99.390625 87.480469 86.46875 90.535156 75.113281 96.3125 C 64.183594 101.875 54.800781 109.882812 47.976562 119.472656 C 44.933594 123.753906 38.996094 124.753906 34.714844 121.707031 C 30.433594 118.664062 29.433594 112.726562 32.480469 108.445312 C 50.292969 83.40625 80.203125 68.457031 112.480469 68.457031 C 128.941406 68.457031 145.183594 72.402344 159.445312 79.863281 C 173.355469 87.136719 185.199219 97.625 193.691406 110.191406 C 196.632812 114.542969 195.492188 120.457031 191.140625 123.394531 C 189.507812 124.5 187.652344 125.027344 185.820312 125.027344 " fill-opacity="1" fill-rule="nonzero"/><path fill="#7d7d7d" d="M 73.195312 153.628906 C 71.429688 153.628906 69.640625 153.140625 68.046875 152.109375 C 63.632812 149.257812 62.367188 143.371094 65.214844 138.960938 C 70.335938 131.03125 77.394531 124.417969 85.632812 119.832031 C 94.140625 115.09375 103.8125 112.589844 113.601562 112.589844 C 132.753906 112.589844 150.597656 122.074219 161.332031 137.960938 C 164.273438 142.316406 163.128906 148.226562 158.773438 151.167969 C 157.144531 152.269531 155.292969 152.796875 153.460938 152.796875 C 150.40625 152.796875 147.410156 151.332031 145.570312 148.609375 C 138.378906 137.964844 126.429688 131.609375 113.601562 131.609375 C 100.457031 131.609375 88.339844 138.214844 81.195312 149.277344 C 79.375 152.09375 76.316406 153.628906 73.195312 153.628906 " fill-opacity="1" fill-rule="nonzero"/><g clip-path="url(#0c4a9b60d1)"><path fill="#7d7d7d" d="M 131.96875 179.695312 C 131.96875 189.839844 123.746094 198.0625 113.601562 198.0625 C 103.460938 198.0625 95.238281 189.839844 95.238281 179.695312 C 95.238281 169.554688 103.460938 161.332031 113.601562 161.332031 C 123.746094 161.332031 131.96875 169.554688 131.96875 179.695312 " fill-opacity="1" fill-rule="nonzero"/></g></svg>