<svg xmlns="http://www.w3.org/2000/svg" xmlns:xlink="http://www.w3.org/1999/xlink" width="300" zoomAndPan="magnify" viewBox="0 0 224.87999 225" height="300" preserveAspectRatio="xMidYMid meet" version="1.0"><defs><clipPath id="ccf35fc776"><path d="M 0 192 L 224.761719 192 L 224.761719 209 L 0 209 Z M 0 192 " clip-rule="nonzero"/></clipPath><clipPath id="730cc42a48"><path d="M 192 0.0585938 L 209 0.0585938 L 209 224.191406 L 192 224.191406 Z M 192 0.0585938 " clip-rule="nonzero"/></clipPath><clipPath id="a9a57726e6"><path d="M 0 176 L 33 176 L 33 224.191406 L 0 224.191406 Z M 0 176 " clip-rule="nonzero"/></clipPath><clipPath id="8937b41523"><path d="M 176 0.0585938 L 224.761719 0.0585938 L 224.761719 33 L 176 33 Z M 176 0.0585938 " clip-rule="nonzero"/></clipPath></defs><path fill="#7d7d7d" d="M 88.519531 160.3125 L 24.738281 160.3125 C 20.335938 160.3125 16.765625 156.742188 16.765625 152.339844 L 16.765625 88.558594 C 16.765625 84.15625 20.335938 80.585938 24.738281 80.585938 L 88.519531 80.585938 C 92.925781 80.585938 96.496094 84.15625 96.496094 88.558594 L 96.496094 152.339844 C 96.496094 156.742188 92.925781 160.3125 88.519531 160.3125 Z M 32.710938 144.367188 L 80.546875 144.367188 L 80.546875 96.53125 L 32.710938 96.53125 Z M 32.710938 144.367188 " fill-opacity="1" fill-rule="nonzero"/><path fill="#7d7d7d" d="M 152.304688 160.3125 L 88.519531 160.3125 C 84.117188 160.3125 80.546875 156.742188 80.546875 152.339844 L 80.546875 88.558594 C 80.546875 84.15625 84.117188 80.585938 88.519531 80.585938 L 152.304688 80.585938 C 156.710938 80.585938 160.277344 84.15625 160.277344 88.558594 L 160.277344 152.339844 C 160.277344 156.742188 156.710938 160.3125 152.304688 160.3125 Z M 96.496094 144.367188 L 144.332031 144.367188 L 144.332031 96.53125 L 96.496094 96.53125 Z M 96.496094 144.367188 " fill-opacity="1" fill-rule="nonzero"/><path fill="#7d7d7d" d="M 72.574219 96.53125 L 8.792969 96.53125 C 5.773438 96.53125 3.011719 94.824219 1.660156 92.125 C 0.3125 89.421875 0.601562 86.191406 2.417969 83.773438 L 38.292969 35.9375 C 39.796875 33.929688 42.160156 32.75 44.671875 32.75 L 107.65625 32.75 C 112.058594 32.75 115.628906 36.320312 115.628906 40.722656 C 115.628906 45.125 112.058594 48.695312 107.65625 48.695312 L 48.65625 48.695312 L 24.738281 80.585938 L 72.574219 80.585938 C 76.976562 80.585938 80.546875 84.15625 80.546875 88.558594 C 80.546875 92.960938 76.976562 96.53125 72.574219 96.53125 Z M 72.574219 96.53125 " fill-opacity="1" fill-rule="nonzero"/><path fill="#7d7d7d" d="M 168.25 96.53125 L 72.574219 96.53125 C 69.554688 96.53125 66.792969 94.824219 65.445312 92.125 C 64.09375 89.421875 64.386719 86.191406 66.199219 83.773438 L 114.035156 19.992188 C 117.039062 15.976562 123.777344 15.96875 126.789062 19.992188 L 174.625 83.773438 C 176.441406 86.191406 176.730469 89.421875 175.382812 92.125 C 174.027344 94.828125 171.269531 96.53125 168.25 96.53125 Z M 88.519531 80.585938 L 152.304688 80.585938 L 120.414062 38.0625 Z M 88.519531 80.585938 " fill-opacity="1" fill-rule="nonzero"/><path fill="#7d7d7d" d="M 120.414062 160.3125 C 116.011719 160.3125 112.441406 156.742188 112.441406 152.339844 L 112.441406 120.449219 C 112.441406 116.046875 116.011719 112.476562 120.414062 112.476562 C 124.820312 112.476562 128.386719 116.046875 128.386719 120.449219 L 128.386719 152.339844 C 128.386719 156.742188 124.820312 160.3125 120.414062 160.3125 Z M 120.414062 160.3125 " fill-opacity="1" fill-rule="nonzero"/><g clip-path="url(#ccf35fc776)"><path fill="#7d7d7d" d="M 216.085938 208.152344 L 8.792969 208.152344 C 4.390625 208.152344 0.820312 204.582031 0.820312 200.179688 C 0.820312 195.777344 4.390625 192.207031 8.792969 192.207031 L 216.085938 192.207031 C 220.492188 192.207031 224.058594 195.777344 224.058594 200.179688 C 224.058594 204.582031 220.492188 208.152344 216.085938 208.152344 Z M 216.085938 208.152344 " fill-opacity="1" fill-rule="nonzero"/></g><g clip-path="url(#730cc42a48)"><path fill="#7d7d7d" d="M 200.140625 224.097656 C 195.734375 224.097656 192.167969 220.527344 192.167969 216.125 L 192.167969 8.832031 C 192.167969 4.425781 195.734375 0.855469 200.140625 0.855469 C 204.546875 0.855469 208.113281 4.425781 208.113281 8.832031 L 208.113281 216.125 C 208.113281 220.527344 204.546875 224.097656 200.140625 224.097656 Z M 200.140625 224.097656 " fill-opacity="1" fill-rule="nonzero"/></g><g clip-path="url(#a9a57726e6)"><path fill="#7d7d7d" d="M 24.738281 224.097656 C 22.699219 224.097656 20.660156 223.316406 19.101562 221.761719 L 3.15625 205.816406 C 0.0429688 202.699219 0.0429688 197.65625 3.15625 194.539062 L 19.101562 178.59375 C 22.214844 175.480469 27.261719 175.480469 30.375 178.59375 C 33.492188 181.710938 33.492188 186.753906 30.375 189.871094 L 20.066406 200.179688 L 30.375 210.488281 C 33.492188 213.601562 33.492188 218.644531 30.375 221.761719 C 28.820312 223.320312 26.777344 224.097656 24.738281 224.097656 Z M 24.738281 224.097656 " fill-opacity="1" fill-rule="nonzero"/></g><g clip-path="url(#8937b41523)"><path fill="#7d7d7d" d="M 216.085938 32.75 C 214.046875 32.75 212.007812 31.96875 210.449219 30.414062 L 200.140625 20.105469 L 189.832031 30.414062 C 186.71875 33.527344 181.671875 33.527344 178.558594 30.414062 C 175.441406 27.296875 175.445312 22.253906 178.558594 19.136719 L 194.503906 3.191406 C 197.617188 0.078125 202.664062 0.078125 205.777344 3.191406 L 221.722656 19.136719 C 224.835938 22.253906 224.835938 27.296875 221.722656 30.414062 C 220.167969 31.96875 218.125 32.75 216.085938 32.75 Z M 216.085938 32.75 " fill-opacity="1" fill-rule="nonzero"/></g></svg>