<svg xmlns="http://www.w3.org/2000/svg" xmlns:xlink="http://www.w3.org/1999/xlink" width="300" zoomAndPan="magnify" viewBox="0 0 224.87999 225" height="300" preserveAspectRatio="xMidYMid meet" version="1.0"><defs><clipPath id="1d044133b6"><path d="M 15.039062 0.0585938 L 206 0.0585938 L 206 224.9375 L 15.039062 224.9375 Z M 15.039062 0.0585938 " clip-rule="nonzero"/></clipPath><clipPath id="6abb73b1a9"><path d="M 63 123 L 209.839844 123 L 209.839844 137 L 63 137 Z M 63 123 " clip-rule="nonzero"/></clipPath><clipPath id="7b184dd313"><path d="M 155 199 L 172 199 L 172 224.9375 L 155 224.9375 Z M 155 199 " clip-rule="nonzero"/></clipPath><clipPath id="cef18ad88b"><path d="M 128 199 L 145 199 L 145 224.9375 L 128 224.9375 Z M 128 199 " clip-rule="nonzero"/></clipPath><clipPath id="2bd0c27c9a"><path d="M 101 199 L 118 199 L 118 224.9375 L 101 224.9375 Z M 101 199 " clip-rule="nonzero"/></clipPath></defs><g clip-path="url(#1d044133b6)"><path fill="#7d7d7d" d="M 81.667969 0.0585938 C 83.785156 0.0625 85.902344 0.167969 88.011719 0.375 C 90.121094 0.582031 92.21875 0.890625 94.296875 1.300781 C 96.378906 1.707031 98.433594 2.21875 100.464844 2.824219 C 102.5 3.433594 104.496094 4.136719 106.460938 4.9375 C 108.421875 5.738281 110.34375 6.632812 112.21875 7.617188 C 114.097656 8.601562 115.921875 9.675781 117.695312 10.839844 C 119.46875 12 121.183594 13.246094 122.835938 14.574219 C 124.492188 15.902344 126.074219 17.304688 127.59375 18.789062 C 129.113281 20.269531 130.554688 21.816406 131.921875 23.4375 C 133.289062 25.058594 134.578125 26.742188 135.785156 28.484375 C 136.988281 30.230469 138.109375 32.027344 139.140625 33.878906 C 140.171875 35.730469 141.113281 37.628906 141.960938 39.574219 C 142.8125 41.515625 143.5625 43.496094 144.222656 45.511719 C 144.878906 47.527344 145.4375 49.570312 145.898438 51.640625 C 146.359375 53.710938 146.71875 55.796875 146.980469 57.902344 C 147.238281 60.007812 147.394531 62.117188 147.449219 64.238281 C 150.761719 64.75 154.027344 65.488281 157.238281 66.449219 C 160.449219 67.414062 163.578125 68.589844 166.625 69.984375 C 169.675781 71.378906 172.613281 72.976562 175.441406 74.777344 C 178.269531 76.574219 180.960938 78.5625 183.515625 80.730469 C 186.070312 82.902344 188.464844 85.238281 190.695312 87.738281 C 192.929688 90.242188 194.980469 92.882812 196.847656 95.667969 C 198.714844 98.449219 200.382812 101.347656 201.851562 104.363281 C 203.320312 107.375 204.574219 110.476562 205.613281 113.664062 L 67.082031 113.664062 C 68.121094 110.480469 69.375 107.386719 70.839844 104.375 C 72.304688 101.367188 73.96875 98.46875 75.832031 95.6875 C 77.695312 92.90625 79.738281 90.269531 81.964844 87.769531 C 84.195312 85.269531 86.582031 82.933594 89.128906 80.765625 C 91.679688 78.59375 94.363281 76.609375 97.183594 74.808594 C 100.007812 73.007812 102.9375 71.410156 105.980469 70.011719 C 109.023438 68.613281 112.148438 67.433594 115.351562 66.464844 C 118.558594 65.5 121.8125 64.757812 125.121094 64.238281 C 125.066406 62.832031 124.945312 61.429688 124.757812 60.035156 C 124.570312 58.636719 124.3125 57.253906 123.992188 55.882812 C 123.667969 54.511719 123.277344 53.160156 122.824219 51.828125 C 122.371094 50.496094 121.851562 49.1875 121.273438 47.902344 C 120.691406 46.621094 120.046875 45.367188 119.34375 44.148438 C 118.644531 42.929688 117.882812 41.746094 117.066406 40.597656 C 116.246094 39.449219 115.375 38.347656 114.449219 37.285156 C 113.527344 36.222656 112.550781 35.207031 111.527344 34.238281 C 110.503906 33.273438 109.4375 32.355469 108.324219 31.492188 C 107.210938 30.628906 106.058594 29.820312 104.871094 29.070312 C 103.679688 28.316406 102.453125 27.625 101.195312 26.992188 C 99.9375 26.359375 98.652344 25.789062 97.339844 25.28125 C 96.023438 24.773438 94.691406 24.328125 93.332031 23.949219 C 91.976562 23.570312 90.605469 23.261719 89.21875 23.015625 C 87.832031 22.769531 86.4375 22.589844 85.03125 22.480469 C 83.628906 22.371094 82.222656 22.332031 80.8125 22.355469 C 79.40625 22.382812 78 22.480469 76.601562 22.640625 C 75.203125 22.804688 73.816406 23.035156 72.441406 23.332031 C 71.0625 23.628906 69.703125 23.996094 68.363281 24.425781 C 67.023438 24.855469 65.703125 25.347656 64.410156 25.90625 C 63.117188 26.460938 61.855469 27.082031 60.621094 27.761719 C 59.386719 28.441406 58.191406 29.179688 57.027344 29.976562 C 55.867188 30.773438 54.746094 31.625 53.667969 32.53125 C 52.589844 33.4375 51.558594 34.390625 50.570312 35.398438 C 49.585938 36.402344 48.648438 37.453125 47.765625 38.550781 C 46.882812 39.644531 46.054688 40.78125 45.28125 41.960938 C 44.507812 43.136719 43.792969 44.347656 43.136719 45.59375 C 42.480469 46.839844 41.886719 48.117188 41.351562 49.417969 C 40.820312 50.722656 40.351562 52.050781 39.949219 53.398438 C 39.546875 54.75 39.210938 56.113281 38.9375 57.496094 C 38.667969 58.878906 38.464844 60.269531 38.328125 61.671875 C 38.195312 63.074219 38.125 64.480469 38.128906 65.886719 L 38.128906 224.191406 L 15.835938 224.191406 L 15.835938 65.886719 C 15.839844 64.8125 15.867188 63.734375 15.921875 62.660156 C 15.972656 61.582031 16.054688 60.511719 16.160156 59.4375 C 16.269531 58.367188 16.402344 57.296875 16.558594 56.234375 C 16.71875 55.167969 16.902344 54.105469 17.113281 53.050781 C 17.324219 51.996094 17.5625 50.945312 17.824219 49.898438 C 18.085938 48.855469 18.375 47.816406 18.6875 46.789062 C 19.003906 45.757812 19.339844 44.734375 19.703125 43.722656 C 20.066406 42.707031 20.457031 41.703125 20.867188 40.707031 C 21.28125 39.714844 21.71875 38.730469 22.179688 37.757812 C 22.640625 36.78125 23.125 35.820312 23.632812 34.871094 C 24.140625 33.921875 24.671875 32.984375 25.226562 32.0625 C 25.78125 31.136719 26.355469 30.230469 26.953125 29.332031 C 27.554688 28.4375 28.171875 27.558594 28.816406 26.691406 C 29.457031 25.828125 30.121094 24.980469 30.804688 24.148438 C 31.484375 23.316406 32.1875 22.5 32.914062 21.703125 C 33.636719 20.902344 34.378906 20.125 35.140625 19.363281 C 35.902344 18.601562 36.679688 17.859375 37.480469 17.136719 C 38.277344 16.410156 39.09375 15.707031 39.925781 15.023438 C 40.757812 14.34375 41.605469 13.679688 42.472656 13.039062 C 43.335938 12.394531 44.214844 11.777344 45.113281 11.175781 C 46.007812 10.578125 46.917969 10.003906 47.839844 9.449219 C 48.761719 8.894531 49.699219 8.363281 50.648438 7.855469 C 51.597656 7.347656 52.5625 6.863281 53.535156 6.402344 C 54.507812 5.941406 55.492188 5.503906 56.484375 5.089844 C 57.480469 4.679688 58.484375 4.289062 59.5 3.925781 C 60.511719 3.5625 61.535156 3.226562 62.566406 2.910156 C 63.597656 2.597656 64.632812 2.308594 65.679688 2.046875 C 66.722656 1.785156 67.773438 1.546875 68.828125 1.335938 C 69.886719 1.125 70.945312 0.941406 72.011719 0.78125 C 73.074219 0.625 74.144531 0.492188 75.214844 0.382812 C 76.289062 0.277344 77.363281 0.195312 78.4375 0.144531 C 79.511719 0.0898438 80.589844 0.0625 81.667969 0.0585938 Z M 81.667969 0.0585938 " fill-opacity="1" fill-rule="nonzero"/></g><g clip-path="url(#6abb73b1a9)"><path fill="#7d7d7d" d="M 63.664062 131.539062 C 63.84375 128.808594 64.175781 126.09375 64.65625 123.398438 L 208.042969 123.398438 C 208.519531 126.09375 208.851562 128.808594 209.03125 131.539062 C 209.050781 131.835938 209.039062 132.132812 209 132.429688 C 208.957031 132.726562 208.886719 133.019531 208.785156 133.300781 C 208.683594 133.582031 208.554688 133.851562 208.398438 134.105469 C 208.242188 134.363281 208.0625 134.601562 207.855469 134.820312 C 207.652344 135.039062 207.425781 135.234375 207.179688 135.40625 C 206.9375 135.578125 206.675781 135.726562 206.402344 135.84375 C 206.125 135.964844 205.839844 136.054688 205.546875 136.117188 C 205.253906 136.175781 204.957031 136.207031 204.660156 136.207031 L 68.039062 136.207031 C 67.738281 136.207031 67.441406 136.175781 67.148438 136.113281 C 66.855469 136.054688 66.570312 135.964844 66.296875 135.84375 C 66.019531 135.726562 65.761719 135.578125 65.515625 135.40625 C 65.269531 135.234375 65.046875 135.039062 64.839844 134.820312 C 64.636719 134.601562 64.453125 134.363281 64.296875 134.105469 C 64.140625 133.851562 64.011719 133.582031 63.910156 133.300781 C 63.8125 133.019531 63.738281 132.726562 63.699219 132.429688 C 63.65625 132.132812 63.644531 131.835938 63.664062 131.539062 Z M 63.664062 131.539062 " fill-opacity="1" fill-rule="nonzero"/></g><path fill="#7d7d7d" d="M 170.945312 194.71875 C 170.363281 194.136719 169.882812 193.484375 169.5 192.757812 C 169.117188 192.03125 168.851562 191.265625 168.699219 190.457031 C 168.546875 189.652344 168.519531 188.839844 168.613281 188.023438 C 168.707031 187.207031 168.921875 186.425781 169.25 185.671875 L 176.703125 172.335938 L 184.15625 185.671875 C 184.347656 186.105469 184.5 186.550781 184.609375 187.007812 C 184.722656 187.464844 184.796875 187.929688 184.828125 188.398438 C 184.863281 188.871094 184.851562 189.339844 184.804688 189.808594 C 184.753906 190.277344 184.664062 190.738281 184.535156 191.191406 C 184.40625 191.644531 184.238281 192.082031 184.035156 192.507812 C 183.828125 192.933594 183.589844 193.335938 183.3125 193.71875 C 183.039062 194.101562 182.730469 194.457031 182.394531 194.785156 C 182.058594 195.113281 181.695312 195.414062 181.304688 195.679688 C 180.914062 195.945312 180.507812 196.175781 180.078125 196.371094 C 179.648438 196.566406 179.207031 196.722656 178.75 196.84375 C 178.292969 196.960938 177.828125 197.039062 177.359375 197.078125 C 176.890625 197.113281 176.421875 197.113281 175.953125 197.070312 C 175.480469 197.023438 175.019531 196.941406 174.566406 196.816406 C 174.109375 196.695312 173.667969 196.53125 173.242188 196.332031 C 172.816406 196.132812 172.410156 195.894531 172.023438 195.625 C 171.636719 195.355469 171.277344 195.050781 170.945312 194.71875 Z M 170.945312 194.71875 " fill-opacity="1" fill-rule="nonzero"/><path fill="#7d7d7d" d="M 144.042969 194.71875 C 143.460938 194.136719 142.980469 193.484375 142.597656 192.757812 C 142.210938 192.03125 141.945312 191.265625 141.792969 190.457031 C 141.644531 189.652344 141.613281 188.839844 141.710938 188.023438 C 141.804688 187.207031 142.015625 186.425781 142.347656 185.671875 L 149.800781 172.335938 L 157.253906 185.671875 C 157.441406 186.105469 157.59375 186.550781 157.707031 187.007812 C 157.820312 187.464844 157.894531 187.929688 157.925781 188.398438 C 157.957031 188.871094 157.949219 189.339844 157.898438 189.808594 C 157.851562 190.277344 157.761719 190.738281 157.632812 191.191406 C 157.503906 191.644531 157.335938 192.082031 157.128906 192.507812 C 156.925781 192.933594 156.683594 193.335938 156.410156 193.71875 C 156.132812 194.101562 155.828125 194.457031 155.492188 194.785156 C 155.152344 195.117188 154.789062 195.414062 154.402344 195.679688 C 154.011719 195.945312 153.601562 196.175781 153.175781 196.371094 C 152.746094 196.566406 152.300781 196.722656 151.847656 196.84375 C 151.390625 196.960938 150.925781 197.039062 150.457031 197.078125 C 149.988281 197.113281 149.515625 197.113281 149.046875 197.070312 C 148.578125 197.023438 148.117188 196.941406 147.660156 196.816406 C 147.207031 196.695312 146.765625 196.53125 146.339844 196.332031 C 145.914062 196.132812 145.507812 195.894531 145.121094 195.625 C 144.734375 195.355469 144.375 195.050781 144.042969 194.71875 Z M 144.042969 194.71875 " fill-opacity="1" fill-rule="nonzero"/><path fill="#7d7d7d" d="M 117.136719 194.71875 C 116.558594 194.136719 116.074219 193.484375 115.691406 192.757812 C 115.308594 192.03125 115.042969 191.265625 114.890625 190.457031 C 114.738281 189.652344 114.710938 188.839844 114.804688 188.023438 C 114.898438 187.207031 115.113281 186.425781 115.445312 185.671875 L 122.894531 172.335938 L 130.347656 185.671875 C 130.539062 186.105469 130.691406 186.550781 130.804688 187.007812 C 130.917969 187.464844 130.988281 187.929688 131.019531 188.398438 C 131.054688 188.871094 131.046875 189.339844 130.996094 189.808594 C 130.949219 190.277344 130.859375 190.738281 130.730469 191.191406 C 130.601562 191.644531 130.433594 192.082031 130.226562 192.507812 C 130.023438 192.933594 129.78125 193.335938 129.503906 193.71875 C 129.230469 194.101562 128.925781 194.457031 128.585938 194.785156 C 128.25 195.117188 127.886719 195.414062 127.496094 195.679688 C 127.109375 195.945312 126.699219 196.175781 126.269531 196.371094 C 125.839844 196.566406 125.398438 196.722656 124.941406 196.84375 C 124.484375 196.960938 124.023438 197.039062 123.550781 197.078125 C 123.082031 197.113281 122.613281 197.113281 122.144531 197.070312 C 121.675781 197.023438 121.210938 196.941406 120.757812 196.816406 C 120.300781 196.695312 119.863281 196.53125 119.433594 196.332031 C 119.007812 196.132812 118.601562 195.894531 118.214844 195.625 C 117.832031 195.355469 117.472656 195.050781 117.136719 194.71875 Z M 117.136719 194.71875 " fill-opacity="1" fill-rule="nonzero"/><path fill="#7d7d7d" d="M 90.234375 194.71875 C 89.652344 194.136719 89.171875 193.484375 88.789062 192.757812 C 88.40625 192.03125 88.136719 191.265625 87.988281 190.457031 C 87.835938 189.652344 87.808594 188.839844 87.902344 188.023438 C 87.996094 187.207031 88.207031 186.425781 88.539062 185.671875 L 95.992188 172.335938 L 103.445312 185.671875 C 103.636719 186.105469 103.785156 186.550781 103.898438 187.007812 C 104.011719 187.464844 104.085938 187.929688 104.117188 188.398438 C 104.148438 188.871094 104.140625 189.339844 104.09375 189.808594 C 104.042969 190.277344 103.953125 190.738281 103.824219 191.191406 C 103.695312 191.644531 103.527344 192.082031 103.324219 192.507812 C 103.117188 192.933594 102.878906 193.335938 102.601562 193.71875 C 102.328125 194.101562 102.019531 194.457031 101.683594 194.785156 C 101.34375 195.117188 100.980469 195.414062 100.59375 195.679688 C 100.203125 195.945312 99.796875 196.175781 99.367188 196.371094 C 98.9375 196.566406 98.496094 196.722656 98.039062 196.84375 C 97.582031 196.960938 97.117188 197.039062 96.648438 197.078125 C 96.179688 197.113281 95.710938 197.113281 95.238281 197.070312 C 94.769531 197.023438 94.308594 196.941406 93.851562 196.816406 C 93.398438 196.695312 92.957031 196.53125 92.53125 196.332031 C 92.105469 196.132812 91.699219 195.894531 91.3125 195.625 C 90.925781 195.355469 90.566406 195.050781 90.234375 194.71875 Z M 90.234375 194.71875 " fill-opacity="1" fill-rule="nonzero"/><g clip-path="url(#7b184dd313)"><path fill="#7d7d7d" d="M 169.011719 221.808594 C 168.679688 222.140625 168.316406 222.441406 167.933594 222.714844 C 167.546875 222.984375 167.140625 223.21875 166.714844 223.421875 C 166.285156 223.621094 165.847656 223.78125 165.390625 223.90625 C 164.9375 224.03125 164.472656 224.113281 164.003906 224.15625 C 163.535156 224.203125 163.066406 224.203125 162.597656 224.167969 C 162.125 224.128906 161.664062 224.050781 161.207031 223.933594 C 160.75 223.8125 160.308594 223.65625 159.878906 223.460938 C 159.449219 223.265625 159.039062 223.035156 158.652344 222.769531 C 158.261719 222.503906 157.898438 222.203125 157.5625 221.875 C 157.226562 221.546875 156.917969 221.191406 156.644531 220.808594 C 156.367188 220.425781 156.125 220.023438 155.921875 219.597656 C 155.714844 219.171875 155.546875 218.734375 155.417969 218.28125 C 155.289062 217.828125 155.199219 217.367188 155.152344 216.898438 C 155.101562 216.429688 155.09375 215.957031 155.125 215.488281 C 155.160156 215.019531 155.230469 214.554688 155.34375 214.097656 C 155.457031 213.640625 155.609375 213.195312 155.800781 212.761719 L 163.25 199.425781 L 170.703125 212.761719 C 171.035156 213.515625 171.25 214.296875 171.34375 215.113281 C 171.4375 215.929688 171.410156 216.738281 171.257812 217.546875 C 171.105469 218.355469 170.839844 219.121094 170.457031 219.847656 C 170.074219 220.574219 169.59375 221.226562 169.011719 221.808594 Z M 169.011719 221.808594 " fill-opacity="1" fill-rule="nonzero"/></g><g clip-path="url(#cef18ad88b)"><path fill="#7d7d7d" d="M 130.589844 221.808594 C 130.007812 221.226562 129.527344 220.574219 129.144531 219.847656 C 128.761719 219.121094 128.492188 218.355469 128.34375 217.546875 C 128.191406 216.742188 128.164062 215.929688 128.257812 215.113281 C 128.351562 214.296875 128.5625 213.515625 128.894531 212.761719 L 136.347656 199.425781 L 143.800781 212.761719 C 143.992188 213.195312 144.140625 213.640625 144.253906 214.097656 C 144.367188 214.554688 144.441406 215.019531 144.472656 215.488281 C 144.503906 215.957031 144.496094 216.429688 144.449219 216.898438 C 144.398438 217.367188 144.308594 217.828125 144.179688 218.28125 C 144.050781 218.734375 143.882812 219.171875 143.679688 219.597656 C 143.472656 220.019531 143.234375 220.425781 142.957031 220.808594 C 142.683594 221.191406 142.375 221.546875 142.039062 221.875 C 141.699219 222.203125 141.339844 222.503906 140.949219 222.769531 C 140.558594 223.035156 140.152344 223.265625 139.722656 223.460938 C 139.292969 223.65625 138.851562 223.8125 138.394531 223.929688 C 137.9375 224.050781 137.472656 224.128906 137.003906 224.167969 C 136.535156 224.203125 136.066406 224.203125 135.59375 224.15625 C 135.125 224.113281 134.664062 224.03125 134.210938 223.90625 C 133.753906 223.78125 133.3125 223.621094 132.886719 223.421875 C 132.460938 223.21875 132.054688 222.984375 131.667969 222.714844 C 131.28125 222.441406 130.921875 222.140625 130.589844 221.808594 Z M 130.589844 221.808594 " fill-opacity="1" fill-rule="nonzero"/></g><g clip-path="url(#2bd0c27c9a)"><path fill="#7d7d7d" d="M 103.683594 221.808594 C 103.105469 221.226562 102.625 220.574219 102.238281 219.847656 C 101.855469 219.121094 101.589844 218.355469 101.4375 217.546875 C 101.289062 216.738281 101.257812 215.929688 101.355469 215.113281 C 101.449219 214.296875 101.660156 213.515625 101.992188 212.761719 L 109.445312 199.425781 L 116.898438 212.761719 C 117.085938 213.195312 117.238281 213.640625 117.351562 214.097656 C 117.464844 214.554688 117.535156 215.019531 117.570312 215.488281 C 117.601562 215.957031 117.59375 216.429688 117.542969 216.898438 C 117.496094 217.367188 117.40625 217.828125 117.277344 218.28125 C 117.148438 218.734375 116.980469 219.171875 116.773438 219.597656 C 116.570312 220.019531 116.328125 220.425781 116.054688 220.808594 C 115.777344 221.191406 115.472656 221.546875 115.132812 221.875 C 114.796875 222.203125 114.433594 222.503906 114.046875 222.769531 C 113.65625 223.035156 113.246094 223.265625 112.816406 223.460938 C 112.390625 223.65625 111.945312 223.8125 111.488281 223.933594 C 111.035156 224.050781 110.570312 224.128906 110.101562 224.167969 C 109.628906 224.203125 109.160156 224.203125 108.691406 224.15625 C 108.222656 224.113281 107.761719 224.03125 107.304688 223.90625 C 106.851562 223.78125 106.410156 223.621094 105.984375 223.421875 C 105.554688 223.21875 105.148438 222.984375 104.765625 222.714844 C 104.378906 222.441406 104.019531 222.140625 103.683594 221.808594 Z M 103.683594 221.808594 " fill-opacity="1" fill-rule="nonzero"/></g><path fill="#7d7d7d" d="M 155.800781 158.585938 L 163.25 145.25 L 170.703125 158.585938 C 170.839844 158.894531 170.957031 159.210938 171.054688 159.53125 C 171.152344 159.855469 171.226562 160.183594 171.285156 160.515625 C 171.339844 160.847656 171.375 161.183594 171.390625 161.519531 C 171.402344 161.859375 171.398438 162.195312 171.371094 162.53125 C 171.34375 162.867188 171.292969 163.199219 171.226562 163.53125 C 171.15625 163.863281 171.066406 164.1875 170.957031 164.503906 C 170.847656 164.824219 170.71875 165.136719 170.574219 165.4375 C 170.425781 165.742188 170.257812 166.035156 170.074219 166.316406 C 169.890625 166.601562 169.6875 166.871094 169.472656 167.128906 C 169.253906 167.386719 169.019531 167.628906 168.773438 167.859375 C 168.523438 168.085938 168.261719 168.300781 167.988281 168.496094 C 167.714844 168.691406 167.429688 168.871094 167.132812 169.03125 C 166.835938 169.191406 166.53125 169.332031 166.214844 169.457031 C 165.902344 169.578125 165.582031 169.683594 165.253906 169.765625 C 164.925781 169.847656 164.59375 169.910156 164.261719 169.953125 C 163.925781 169.992188 163.589844 170.015625 163.253906 170.015625 C 162.914062 170.015625 162.578125 169.992188 162.242188 169.953125 C 161.910156 169.910156 161.578125 169.847656 161.25 169.765625 C 160.925781 169.683594 160.601562 169.578125 160.289062 169.457031 C 159.976562 169.332031 159.667969 169.191406 159.371094 169.03125 C 159.074219 168.871094 158.789062 168.691406 158.515625 168.496094 C 158.242188 168.300781 157.980469 168.085938 157.730469 167.859375 C 157.484375 167.628906 157.25 167.386719 157.03125 167.128906 C 156.816406 166.871094 156.613281 166.601562 156.429688 166.316406 C 156.246094 166.035156 156.078125 165.742188 155.929688 165.4375 C 155.785156 165.136719 155.65625 164.824219 155.546875 164.503906 C 155.4375 164.1875 155.347656 163.863281 155.277344 163.53125 C 155.210938 163.199219 155.160156 162.867188 155.132812 162.53125 C 155.105469 162.195312 155.101562 161.859375 155.113281 161.519531 C 155.128906 161.183594 155.164062 160.847656 155.222656 160.515625 C 155.277344 160.183594 155.351562 159.855469 155.449219 159.53125 C 155.546875 159.210938 155.664062 158.894531 155.800781 158.585938 Z M 155.800781 158.585938 " fill-opacity="1" fill-rule="nonzero"/><path fill="#7d7d7d" d="M 130.589844 167.628906 C 130.007812 167.046875 129.527344 166.394531 129.144531 165.667969 C 128.761719 164.941406 128.492188 164.175781 128.34375 163.367188 C 128.191406 162.5625 128.164062 161.75 128.257812 160.933594 C 128.351562 160.121094 128.5625 159.335938 128.894531 158.585938 L 136.347656 145.25 L 143.800781 158.585938 C 143.992188 159.015625 144.140625 159.460938 144.253906 159.917969 C 144.367188 160.375 144.441406 160.839844 144.472656 161.308594 C 144.503906 161.78125 144.496094 162.25 144.449219 162.71875 C 144.398438 163.1875 144.308594 163.648438 144.179688 164.101562 C 144.050781 164.554688 143.882812 164.992188 143.679688 165.417969 C 143.472656 165.84375 143.234375 166.246094 142.957031 166.628906 C 142.683594 167.011719 142.375 167.367188 142.039062 167.695312 C 141.699219 168.027344 141.339844 168.324219 140.949219 168.589844 C 140.558594 168.855469 140.152344 169.085938 139.722656 169.28125 C 139.292969 169.476562 138.851562 169.632812 138.394531 169.753906 C 137.9375 169.871094 137.472656 169.949219 137.003906 169.988281 C 136.535156 170.027344 136.066406 170.023438 135.59375 169.980469 C 135.125 169.9375 134.664062 169.851562 134.210938 169.726562 C 133.753906 169.605469 133.3125 169.441406 132.886719 169.242188 C 132.460938 169.042969 132.054688 168.804688 131.667969 168.535156 C 131.28125 168.265625 130.921875 167.960938 130.589844 167.628906 Z M 130.589844 167.628906 " fill-opacity="1" fill-rule="nonzero"/><path fill="#7d7d7d" d="M 103.683594 167.628906 C 103.105469 167.046875 102.621094 166.394531 102.238281 165.667969 C 101.855469 164.941406 101.589844 164.175781 101.4375 163.367188 C 101.289062 162.5625 101.257812 161.75 101.355469 160.933594 C 101.449219 160.121094 101.660156 159.335938 101.992188 158.585938 L 109.445312 145.25 L 116.898438 158.585938 C 117.085938 159.015625 117.238281 159.460938 117.351562 159.917969 C 117.464844 160.375 117.535156 160.839844 117.570312 161.308594 C 117.601562 161.78125 117.59375 162.25 117.542969 162.71875 C 117.496094 163.1875 117.40625 163.648438 117.277344 164.101562 C 117.148438 164.554688 116.980469 164.996094 116.773438 165.417969 C 116.570312 165.84375 116.328125 166.246094 116.054688 166.628906 C 115.777344 167.011719 115.472656 167.367188 115.132812 167.695312 C 114.796875 168.027344 114.433594 168.324219 114.046875 168.589844 C 113.65625 168.855469 113.246094 169.085938 112.816406 169.28125 C 112.390625 169.476562 111.945312 169.636719 111.488281 169.753906 C 111.035156 169.871094 110.570312 169.949219 110.101562 169.988281 C 109.628906 170.027344 109.160156 170.023438 108.691406 169.980469 C 108.222656 169.9375 107.761719 169.851562 107.304688 169.726562 C 106.851562 169.605469 106.410156 169.441406 105.984375 169.242188 C 105.554688 169.042969 105.148438 168.804688 104.765625 168.535156 C 104.378906 168.265625 104.019531 167.960938 103.683594 167.628906 Z M 103.683594 167.628906 " fill-opacity="1" fill-rule="nonzero"/></svg>