<svg xmlns="http://www.w3.org/2000/svg" xmlns:xlink="http://www.w3.org/1999/xlink" width="300" zoomAndPan="magnify" viewBox="0 0 224.87999 225" height="300" preserveAspectRatio="xMidYMid meet" version="1.0"><defs><clipPath id="56cc15c8b2"><path d="M 58 36.882812 L 86 36.882812 L 86 75 L 58 75 Z M 58 36.882812 " clip-rule="nonzero"/></clipPath><clipPath id="0e20dd6101"><path d="M 0 155 L 37 155 L 37 188.304688 L 0 188.304688 Z M 0 155 " clip-rule="nonzero"/></clipPath><clipPath id="b5c0a66beb"><path d="M 42 96 L 131 96 L 131 188.304688 L 42 188.304688 Z M 42 96 " clip-rule="nonzero"/></clipPath><clipPath id="28895deb5b"><path d="M 136 96 L 224.761719 96 L 224.761719 188.304688 L 136 188.304688 Z M 136 96 " clip-rule="nonzero"/></clipPath><clipPath id="971910ee70"><path d="M 42 80 L 224.761719 80 L 224.761719 92 L 42 92 Z M 42 80 " clip-rule="nonzero"/></clipPath></defs><g clip-path="url(#56cc15c8b2)"><path fill="#7d7d7d" d="M 58.730469 74.570312 L 58.730469 50.414062 C 58.730469 46.695312 60.246094 43.300781 62.695312 40.847656 C 65.148438 38.394531 68.542969 36.882812 72.261719 36.882812 C 75.980469 36.882812 79.375 38.394531 81.824219 40.847656 C 84.277344 43.300781 85.789062 46.695312 85.789062 50.414062 L 80.109375 50.414062 C 80.109375 48.246094 79.25 46.285156 77.820312 44.855469 C 76.390625 43.425781 74.425781 42.566406 72.261719 42.566406 C 70.09375 42.566406 68.132812 43.425781 66.703125 44.855469 C 65.273438 46.285156 64.414062 48.246094 64.414062 50.414062 L 64.414062 74.570312 Z M 58.730469 74.570312 " fill-opacity="1" fill-rule="nonzero"/></g><g clip-path="url(#0e20dd6101)"><path fill="#7d7d7d" d="M 14.914062 168.332031 L 21.863281 168.332031 C 23.417969 168.332031 24.683594 169.601562 24.683594 171.152344 C 24.683594 172.707031 23.417969 173.972656 21.863281 173.972656 L 14.914062 173.972656 C 13.363281 173.972656 12.09375 172.707031 12.09375 171.152344 C 12.09375 169.601562 13.363281 168.332031 14.914062 168.332031 Z M 36.703125 188.074219 L 36.703125 155.90625 L 0.0390625 155.90625 L 0.0390625 188.074219 Z M 36.703125 188.074219 " fill-opacity="1" fill-rule="evenodd"/></g><path fill="#7d7d7d" d="M 36.703125 150.265625 L 36.703125 118.101562 L 0.0390625 118.101562 L 0.0390625 150.265625 Z M 24.683594 134.203125 C 24.683594 135.757812 23.417969 137.023438 21.863281 137.023438 L 14.914062 137.023438 C 13.363281 137.023438 12.09375 135.757812 12.09375 134.203125 C 12.09375 132.652344 13.363281 131.382812 14.914062 131.382812 L 21.863281 131.382812 C 23.417969 131.382812 24.683594 132.652344 24.683594 134.203125 Z M 24.683594 134.203125 " fill-opacity="1" fill-rule="evenodd"/><path fill="#7d7d7d" d="M 36.703125 112.417969 L 36.703125 80.25 L 0.0390625 80.25 L 0.0390625 112.417969 Z M 21.824219 94.351562 C 23.375 94.351562 24.644531 95.621094 24.644531 97.171875 C 24.644531 98.726562 23.375 99.992188 21.824219 99.992188 L 14.875 99.992188 C 13.320312 99.992188 12.054688 98.726562 12.054688 97.171875 C 12.054688 95.621094 13.320312 94.351562 14.875 94.351562 Z M 21.824219 94.351562 " fill-opacity="1" fill-rule="evenodd"/><g clip-path="url(#b5c0a66beb)"><path fill="#7d7d7d" d="M 113.054688 138.984375 C 113.054688 137.433594 114.320312 136.164062 115.875 136.164062 C 117.425781 136.164062 118.695312 137.433594 118.695312 138.984375 L 118.695312 145.933594 C 118.695312 147.488281 117.425781 148.753906 115.875 148.753906 C 114.320312 148.753906 113.054688 147.488281 113.054688 145.933594 Z M 130.75 188.117188 L 130.75 96.804688 L 42.382812 96.804688 L 42.382812 188.117188 Z M 130.75 188.117188 " fill-opacity="1" fill-rule="evenodd"/></g><g clip-path="url(#28895deb5b)"><path fill="#7d7d7d" d="M 224.84375 188.117188 L 224.84375 96.804688 L 136.472656 96.804688 L 136.472656 188.117188 Z M 151.3125 136.164062 C 152.863281 136.164062 154.132812 137.433594 154.132812 138.984375 L 154.132812 145.933594 C 154.132812 147.488281 152.863281 148.753906 151.3125 148.753906 C 149.757812 148.753906 148.492188 147.488281 148.492188 145.933594 L 148.492188 138.984375 C 148.492188 137.433594 149.757812 136.164062 151.3125 136.164062 Z M 151.3125 136.164062 " fill-opacity="1" fill-rule="evenodd"/></g><g clip-path="url(#971910ee70)"><path fill="#7d7d7d" d="M 42.382812 80.25 L 224.84375 80.25 L 224.84375 91.125 L 42.382812 91.125 Z M 42.382812 80.25 " fill-opacity="1" fill-rule="evenodd"/></g><path fill="#7d7d7d" d="M 203.382812 73.261719 C 204.199219 72.445312 204.730469 71.300781 204.730469 70.074219 L 204.730469 50.699219 L 170.683594 50.699219 L 170.683594 70.074219 C 170.683594 71.300781 171.214844 72.445312 172.035156 73.261719 C 172.851562 74.078125 173.953125 74.570312 175.179688 74.609375 L 200.277344 74.609375 C 201.503906 74.609375 202.605469 74.078125 203.425781 73.261719 Z M 203.382812 73.261719 " fill-opacity="1" fill-rule="evenodd"/><path fill="#7d7d7d" d="M 169.664062 56.585938 L 171.460938 56.585938 C 172.523438 56.585938 173.382812 57.445312 173.382812 58.507812 C 173.382812 59.570312 172.523438 60.425781 171.460938 60.425781 L 169.664062 60.425781 C 168.601562 60.425781 167.742188 59.570312 167.742188 58.507812 C 167.742188 57.445312 168.601562 56.585938 169.664062 56.585938 Z M 169.664062 56.585938 " fill-opacity="1" fill-rule="evenodd"/><path fill="#7d7d7d" d="M 203.914062 56.585938 L 205.714844 56.585938 C 206.777344 56.585938 207.632812 57.445312 207.632812 58.507812 C 207.632812 59.570312 206.777344 60.425781 205.714844 60.425781 L 203.914062 60.425781 C 202.851562 60.425781 201.992188 59.570312 201.992188 58.507812 C 201.992188 57.445312 202.851562 56.585938 203.914062 56.585938 Z M 203.914062 56.585938 " fill-opacity="1" fill-rule="evenodd"/></svg>