<svg xmlns="http://www.w3.org/2000/svg" xmlns:xlink="http://www.w3.org/1999/xlink" width="300" zoomAndPan="magnify" viewBox="0 0 224.87999 225" height="300" preserveAspectRatio="xMidYMid meet" version="1.0"><defs><filter x="0%" y="0%" width="100%" height="100%" id="a8c7171b89"><feColorMatrix values="0 0 0 0 1 0 0 0 0 1 0 0 0 0 1 0 0 0 1 0" color-interpolation-filters="sRGB"/></filter><clipPath id="37cb282970"><path d="M 143 22.546875 L 224 22.546875 L 224 203.953125 L 143 203.953125 Z M 143 22.546875 " clip-rule="nonzero"/></clipPath><clipPath id="20785cc2e9"><path d="M 71 22.546875 L 153 22.546875 L 153 203.953125 L 71 203.953125 Z M 71 22.546875 " clip-rule="nonzero"/></clipPath><mask id="63702ed4de"><g filter="url(#a8c7171b89)"><rect x="-22.487999" width="269.855988" fill="#000000" y="-22.5" height="270" fill-opacity="0.6"/></g></mask><clipPath id="59ab8f5d1b"><path d="M 0.722656 0.546875 L 81 0.546875 L 81 181.953125 L 0.722656 181.953125 Z M 0.722656 0.546875 " clip-rule="nonzero"/></clipPath><clipPath id="6a957dc1e2"><rect x="0" width="82" y="0" height="182"/></clipPath><clipPath id="afefb28827"><path d="M 0 22.546875 L 82 22.546875 L 82 203.953125 L 0 203.953125 Z M 0 22.546875 " clip-rule="nonzero"/></clipPath><mask id="c4ad4ccde2"><g filter="url(#a8c7171b89)"><rect x="-22.487999" width="269.855988" fill="#000000" y="-22.5" height="270" fill-opacity="0.4"/></g></mask><clipPath id="def67bb4cf"><path d="M 0.238281 0.546875 L 81 0.546875 L 81 181.953125 L 0.238281 181.953125 Z M 0.238281 0.546875 " clip-rule="nonzero"/></clipPath><clipPath id="bc35b5fc27"><rect x="0" width="82" y="0" height="182"/></clipPath></defs><g clip-path="url(#37cb282970)"><path fill="#2348ff" d="M 150.761719 203.707031 L 150.007812 203.707031 C 149.390625 203.707031 148.789062 203.621094 148.199219 203.449219 C 147.605469 203.277344 147.050781 203.027344 146.53125 202.699219 C 146.011719 202.367188 145.546875 201.972656 145.140625 201.511719 C 144.730469 201.046875 144.394531 200.539062 144.132812 199.980469 C 143.871094 199.425781 143.691406 198.84375 143.59375 198.234375 C 143.5 197.625 143.488281 197.015625 143.566406 196.40625 C 143.640625 195.792969 143.800781 195.207031 144.046875 194.640625 C 144.289062 194.074219 144.609375 193.554688 145 193.082031 L 210.890625 113.226562 L 144.980469 33.347656 C 144.589844 32.875 144.273438 32.355469 144.027344 31.789062 C 143.785156 31.226562 143.625 30.640625 143.546875 30.027344 C 143.46875 29.417969 143.480469 28.808594 143.574219 28.203125 C 143.671875 27.59375 143.851562 27.011719 144.113281 26.457031 C 144.371094 25.898438 144.707031 25.390625 145.113281 24.925781 C 145.519531 24.464844 145.980469 24.070312 146.5 23.738281 C 147.019531 23.410156 147.574219 23.15625 148.164062 22.984375 C 148.753906 22.8125 149.355469 22.722656 149.972656 22.722656 L 150.792969 22.722656 C 151.765625 22.71875 152.691406 22.925781 153.574219 23.339844 C 154.453125 23.753906 155.203125 24.335938 155.820312 25.085938 L 219.628906 102.46875 C 220.246094 103.21875 220.796875 104.019531 221.277344 104.863281 C 221.757812 105.710938 222.164062 106.589844 222.492188 107.507812 C 222.820312 108.421875 223.070312 109.359375 223.238281 110.320312 C 223.402344 111.277344 223.488281 112.242188 223.488281 113.214844 C 223.488281 114.191406 223.402344 115.15625 223.238281 116.113281 C 223.070312 117.074219 222.820312 118.011719 222.492188 118.925781 C 222.164062 119.84375 221.757812 120.722656 221.277344 121.570312 C 220.796875 122.414062 220.246094 123.214844 219.628906 123.964844 L 155.777344 201.347656 C 155.15625 202.097656 154.410156 202.675781 153.53125 203.089844 C 152.65625 203.503906 151.730469 203.707031 150.761719 203.707031 Z M 150.761719 203.707031 " fill-opacity="1" fill-rule="nonzero"/></g><g clip-path="url(#20785cc2e9)"><g mask="url(#63702ed4de)"><g transform="matrix(1, 0, 0, 1, 71, 22)"><g clip-path="url(#6a957dc1e2)"><g clip-path="url(#59ab8f5d1b)"><path fill="#2348ff" d="M 8.222656 181.707031 L 7.464844 181.707031 C 6.847656 181.707031 6.246094 181.621094 5.652344 181.449219 C 5.0625 181.277344 4.507812 181.027344 3.988281 180.699219 C 3.464844 180.367188 3.003906 179.972656 2.59375 179.511719 C 2.1875 179.046875 1.851562 178.539062 1.589844 177.980469 C 1.328125 177.425781 1.148438 176.84375 1.050781 176.234375 C 0.953125 175.625 0.945312 175.015625 1.019531 174.40625 C 1.097656 173.792969 1.257812 173.207031 1.503906 172.640625 C 1.746094 172.074219 2.0625 171.554688 2.457031 171.082031 L 68.347656 91.226562 L 2.433594 11.347656 C 2.042969 10.875 1.722656 10.355469 1.480469 9.789062 C 1.238281 9.226562 1.074219 8.636719 1 8.027344 C 0.921875 7.417969 0.933594 6.808594 1.027344 6.199219 C 1.125 5.589844 1.304688 5.007812 1.566406 4.453125 C 1.828125 3.894531 2.160156 3.386719 2.566406 2.925781 C 2.972656 2.460938 3.4375 2.066406 3.957031 1.734375 C 4.476562 1.40625 5.03125 1.15625 5.621094 0.980469 C 6.210938 0.808594 6.816406 0.722656 7.429688 0.722656 L 8.253906 0.722656 C 9.226562 0.71875 10.152344 0.925781 11.03125 1.339844 C 11.914062 1.75 12.664062 2.332031 13.28125 3.085938 L 77.089844 80.46875 C 77.707031 81.21875 78.257812 82.019531 78.738281 82.863281 C 79.21875 83.710938 79.625 84.589844 79.953125 85.507812 C 80.285156 86.421875 80.53125 87.359375 80.699219 88.320312 C 80.867188 89.277344 80.949219 90.242188 80.949219 91.214844 C 80.949219 92.191406 80.867188 93.15625 80.699219 94.113281 C 80.53125 95.074219 80.285156 96.011719 79.953125 96.925781 C 79.625 97.84375 79.21875 98.722656 78.738281 99.570312 C 78.257812 100.414062 77.707031 101.214844 77.089844 101.964844 L 13.234375 179.347656 C 12.617188 180.097656 11.871094 180.675781 10.992188 181.089844 C 10.117188 181.503906 9.191406 181.707031 8.222656 181.707031 Z M 8.222656 181.707031 " fill-opacity="1" fill-rule="nonzero"/></g></g></g></g></g><g clip-path="url(#afefb28827)"><g mask="url(#c4ad4ccde2)"><g transform="matrix(1, 0, 0, 1, 0, 22)"><g clip-path="url(#bc35b5fc27)"><g clip-path="url(#def67bb4cf)"><path fill="#2348ff" d="M 7.683594 181.707031 L 6.925781 181.707031 C 6.308594 181.707031 5.707031 181.621094 5.113281 181.449219 C 4.523438 181.277344 3.96875 181.027344 3.449219 180.699219 C 2.925781 180.367188 2.464844 179.972656 2.054688 179.511719 C 1.648438 179.046875 1.3125 178.539062 1.050781 177.980469 C 0.789062 177.425781 0.609375 176.84375 0.511719 176.234375 C 0.414062 175.625 0.40625 175.015625 0.480469 174.40625 C 0.558594 173.792969 0.71875 173.207031 0.960938 172.640625 C 1.207031 172.074219 1.523438 171.554688 1.914062 171.082031 L 67.804688 91.226562 L 1.894531 11.347656 C 1.503906 10.875 1.183594 10.355469 0.941406 9.789062 C 0.695312 9.226562 0.535156 8.636719 0.460938 8.027344 C 0.382812 7.417969 0.390625 6.808594 0.488281 6.199219 C 0.585938 5.589844 0.765625 5.007812 1.027344 4.453125 C 1.289062 3.894531 1.621094 3.386719 2.027344 2.925781 C 2.433594 2.460938 2.898438 2.066406 3.417969 1.734375 C 3.9375 1.40625 4.492188 1.15625 5.082031 0.980469 C 5.671875 0.808594 6.273438 0.722656 6.890625 0.722656 L 7.714844 0.722656 C 8.6875 0.71875 9.613281 0.925781 10.492188 1.339844 C 11.371094 1.753906 12.121094 2.335938 12.738281 3.085938 L 76.546875 80.46875 C 77.164062 81.21875 77.714844 82.019531 78.195312 82.863281 C 78.679688 83.710938 79.082031 84.589844 79.414062 85.507812 C 79.742188 86.421875 79.988281 87.359375 80.15625 88.320312 C 80.324219 89.277344 80.40625 90.242188 80.40625 91.214844 C 80.40625 92.191406 80.324219 93.15625 80.15625 94.113281 C 79.988281 95.074219 79.742188 96.011719 79.414062 96.925781 C 79.082031 97.84375 78.679688 98.722656 78.195312 99.570312 C 77.714844 100.414062 77.164062 101.214844 76.546875 101.964844 L 12.695312 179.347656 C 12.078125 180.097656 11.332031 180.675781 10.453125 181.089844 C 9.574219 181.503906 8.652344 181.707031 7.683594 181.707031 Z M 7.683594 181.707031 " fill-opacity="1" fill-rule="nonzero"/></g></g></g></g></g></svg>